<svg width="48" height="48" viewBox="0 0 48 48" fill="none" xmlns="http://www.w3.org/2000/svg">
<rect x="0.5" y="0.5" width="47" height="47" rx="23.5" stroke="white" stroke-opacity="0.295743"/>
<path fill-rule="evenodd" clip-rule="evenodd" d="M31 23.9997C31 23.7235 30.7761 23.4997 30.5 23.4997H18.707L21.854 20.3537C21.9805 20.2272 22.0298 20.0429 21.9836 19.8701C21.9373 19.6973 21.8023 19.5624 21.6296 19.5161C21.4568 19.4698 21.2725 19.5192 21.146 19.6457L17.146 23.6457C17.0519 23.7395 16.9991 23.8668 16.9991 23.9997C16.9991 24.1325 17.0519 24.2599 17.146 24.3537L21.146 28.3537C21.2725 28.4801 21.4568 28.5295 21.6296 28.4832C21.8023 28.4369 21.9373 28.302 21.9836 28.1292C22.0298 27.9565 21.9805 27.7721 21.854 27.6457L18.707 24.4997H30.5C30.7761 24.4997 31 24.2758 31 23.9997Z" fill="white"/>
</svg>
