<svg width="48" height="48" viewBox="0 0 48 48" fill="none" xmlns="http://www.w3.org/2000/svg">
<rect x="0.5" y="0.5" width="47" height="47" rx="23.5" stroke="white" stroke-opacity="0.295743"/>
<path fill-rule="evenodd" clip-rule="evenodd" d="M17 23.9997C17 23.7235 17.2239 23.4997 17.5 23.4997H29.293L26.146 20.3537C25.9505 20.1581 25.9505 19.8412 26.146 19.6457C26.3415 19.4501 26.6585 19.4501 26.854 19.6457L30.854 23.6457C30.948 23.7395 31.0009 23.8668 31.0009 23.9997C31.0009 24.1325 30.948 24.2599 30.854 24.3537L26.854 28.3537C26.6585 28.5492 26.3415 28.5492 26.146 28.3537C25.9505 28.1581 25.9505 27.8412 26.146 27.6457L29.293 24.4997H17.5C17.2239 24.4997 17 24.2758 17 23.9997Z" fill="white"/>
</svg>
