<svg width="80" height="80" fill="none" xmlns="http://www.w3.org/2000/svg"><circle cx="40" cy="40" r="40" fill="#EF6C57"/><path fill-rule="evenodd" clip-rule="evenodd" d="M25 24a1 1 0 00-1 1v25.088a5.98 5.98 0 001.758 4.154A5.98 5.98 0 0030 56h25a1 1 0 001-1V45a1 1 0 00-1-1H44.522l8.256-8.22a1 1 0 000-1.416l-7.07-7.072a1 1 0 00-1.414 0L36 35.554V25a1 1 0 00-1-1H25zm25.656 11.068L36 49.668V38.376l8.998-8.964 5.658 5.656zM33 50a3 3 0 10-6 0 3 3 0 006 0zm9.516-4H54v8H34.486l8.03-8z" fill="#fff"/></svg>