<svg width="152" height="24" fill="none" xmlns="http://www.w3.org/2000/svg"><path d="M12 18l-7.053 3.708 1.347-7.854L.587 8.292l7.886-1.146L12 0l3.527 7.146 7.886 1.146-5.707 5.562 1.347 7.854L12 18zm32 0l-7.053 3.708 1.347-7.854-5.707-5.562 7.886-1.146L44 0l3.527 7.146 7.886 1.146-5.707 5.562 1.347 7.854L44 18zm32 0l-7.053 3.708 1.347-7.854-5.707-5.562 7.886-1.146L76 0l3.527 7.146 7.886 1.146-5.707 5.562 1.347 7.854L76 18zm32 0l-7.053 3.708 1.347-7.854-5.707-5.562 7.886-1.146L108 0l3.527 7.146 7.886 1.146-5.707 5.562 1.347 7.854L108 18zm32 0l-7.053 3.708 1.347-7.854-5.707-5.562 7.886-1.146L140 0l3.527 7.146 7.886 1.146-5.707 5.562 1.347 7.854L140 18z" fill="#F6D021"/></svg>