<svg width="100" height="80" fill="none" xmlns="http://www.w3.org/2000/svg"><path fill-rule="evenodd" clip-rule="evenodd" d="M44.966 45c.03.15.985 13.3-8.448 23.54C29.508 76.145 18.9 80 4.996 80H0V65.9l4.012-.8c6.9-1.38 11.681-4.115 14.22-8.12A14.459 14.459 0 0020.374 50H4.996A4.998 4.998 0 010 45V10C0 4.485 4.482 0 9.993 0H39.97a4.998 4.998 0 014.996 5v40zm54.994 0c.03.15.98 13.3-8.448 23.54C84.502 76.145 73.895 80 59.99 80h-4.996V65.9l4.012-.8c6.9-1.38 11.681-4.115 14.22-8.12A14.459 14.459 0 0075.368 50H59.99a4.998 4.998 0 01-4.996-5V10c0-5.515 4.482-10 9.993-10h29.977a4.998 4.998 0 014.996 5v40z" fill="#494A69"/></svg>