<svg width="64" height="64" fill="none" xmlns="http://www.w3.org/2000/svg"><circle cx="32" cy="32" r="32" fill="#EF6D58"/><path fill-rule="evenodd" clip-rule="evenodd" d="M22.828 20.765a2.617 2.617 0 013.915.245l2.692 3.459c.494.634.668 1.461.473 2.241l-.82 3.285c-.087.346.014.712.266.965l3.686 3.685c.252.253.62.354.966.267l3.283-.82a2.617 2.617 0 012.241.472l3.459 2.691a2.617 2.617 0 01.245 3.917l-1.552 1.551c-1.11 1.11-2.768 1.598-4.315 1.053a27.949 27.949 0 01-10.514-6.63 27.953 27.953 0 01-6.63-10.514c-.543-1.545-.056-3.206 1.054-4.316l1.551-1.55z" fill="#fff"/></svg>