<svg width="64" height="64" viewBox="0 0 64 64" fill="none" xmlns="http://www.w3.org/2000/svg">
<circle cx="32" cy="32" r="32" fill="#EF6D58"/>
<path fill-rule="evenodd" clip-rule="evenodd" d="M23 23C21.6002 22.9999 20.3864 23.9678 20.075 25.3325L32 32.621L43.925 25.3325C43.6136 23.9678 42.3998 22.9999 41 23H23ZM20 37.7015V27.0455L28.7045 32.3645L20 37.7015ZM30.1415 33.245L20.2865 39.2855C20.7835 40.3335 21.8401 41.0011 23 41H41C42.1597 41.0003 43.2157 40.3321 43.712 39.284L33.857 33.2435L32 34.379L30.1415 33.2435V33.245ZM44 37.7015L35.2955 32.366V32.3645L44 27.0455V37.7015Z" fill="white"/>
</svg>
