<svg width="64" height="64" viewBox="0 0 64 64" fill="none" xmlns="http://www.w3.org/2000/svg">
<circle cx="32" cy="32" r="32" fill="#EF6D58"/>
<path fill-rule="evenodd" clip-rule="evenodd" d="M22.8281 20.7653C23.359 20.2352 24.0919 19.9583 24.8407 20.0051C25.5895 20.0519 26.2822 20.4177 26.743 21.0098L29.4354 24.469C29.9289 25.1035 30.1029 25.93 29.9079 26.7101L29.0874 29.9952C29.0011 30.3413 29.1024 30.7073 29.3544 30.9598L33.0398 34.6454C33.2925 34.8979 33.6592 34.9993 34.0058 34.9124L37.2892 34.0919C38.0691 33.8969 38.8953 34.0711 39.5301 34.5644L42.989 37.2555C44.2324 38.2231 44.3464 40.0607 43.2335 41.1722L41.6825 42.7233C40.5726 43.8333 38.9136 44.3209 37.3672 43.7763C33.4091 42.3836 29.8153 40.1174 26.8525 37.146C23.8815 34.1834 21.6156 30.5899 20.2227 26.6321C19.6797 25.087 20.1672 23.4264 21.2772 22.3164L22.8281 20.7653Z" fill="white"/>
</svg>
