<svg width="64" height="64" viewBox="0 0 64 64" fill="none" xmlns="http://www.w3.org/2000/svg">
<circle cx="32" cy="32" r="32" fill="#EF6D58"/>
<path fill-rule="evenodd" clip-rule="evenodd" d="M33.5128 43.9559C39.4476 43.4434 43.9991 38.5852 44 32.7619C43.9992 27.6868 40.5202 23.2413 35.5089 21.9122C35.6419 21.4597 35.5495 20.9724 35.2595 20.5964C34.9696 20.2205 34.5157 19.9996 34.034 20H30.9675C30.4858 19.9996 30.0319 20.2205 29.7419 20.5964C29.4519 20.9724 29.3596 21.4597 29.4925 21.9122C23.7421 23.4356 20.1344 28.9996 21.1799 34.7325C22.2255 40.4654 27.5779 44.4683 33.5128 43.9559ZM38.4618 26.9118L38.465 26.9099L38.462 26.9114L38.4618 26.9118ZM38.4618 26.9118L30.8755 31.1479L26.5365 38.5674L34.126 34.3294L38.4618 26.9118Z" fill="white"/>
</svg>
