<svg width="152" height="48" fill="none" xmlns="http://www.w3.org/2000/svg"><path d="M62.66 32l4.416-17.724h5.892L77.36 32h-3.816l-3.528-15.456h.024L66.476 32H62.66zm3.168-4.104v-2.904h8.4v2.904h-8.4zm22.451 2.592c.784.08 1.468.232 2.052.456.592.216 1.052.54 1.38.972.328.424.492.992.492 1.704 0 .824-.272 1.524-.816 2.1-.536.584-1.324 1.028-2.364 1.332-1.04.304-2.3.456-3.78.456-2.184 0-3.876-.316-5.076-.948-1.192-.624-1.788-1.46-1.788-2.508 0-.296.032-.564.096-.804.072-.232.16-.432.264-.6l3.384.492c-.04.056-.084.14-.132.252-.04.12-.06.268-.06.444 0 .424.316.74.948.948.64.208 1.464.312 2.472.312.712 0 1.32-.052 1.824-.156.512-.096.9-.24 1.164-.432.272-.192.408-.412.408-.66 0-.36-.176-.596-.528-.708a5.887 5.887 0 00-1.2-.24l-4.824-.492c-.888-.088-1.624-.344-2.208-.768-.584-.424-.876-.996-.876-1.716 0-.448.124-.856.372-1.224.248-.376.532-.684.852-.924.32-.248.588-.404.804-.468l1.896.96c-.152.024-.332.12-.54.288-.2.168-.3.364-.3.588 0 .224.112.416.336.576.232.16.652.268 1.26.324l4.488.444zm1.26-11.232h3.276l-1.332 4.896a8.247 8.247 0 01-1.104 2.484 5.127 5.127 0 01-1.956 1.704c-.808.416-1.828.624-3.06.624-1.296 0-2.42-.2-3.372-.6-.944-.4-1.672-.964-2.184-1.692-.512-.736-.768-1.604-.768-2.604s.26-1.88.78-2.64c.528-.76 1.244-1.352 2.148-1.776.912-.424 1.944-.636 3.096-.636.872 0 1.668.144 2.388.432.728.28 1.312.652 1.752 1.116.448.464.68.976.696 1.536l-.684.18.324-3.024zm-4.2 6.984c.528 0 .992-.084 1.392-.252.4-.176.712-.428.936-.756.224-.336.336-.74.336-1.212 0-.464-.112-.86-.336-1.188a2.15 2.15 0 00-.936-.756c-.4-.176-.864-.264-1.392-.264-.504 0-.96.092-1.368.276-.4.176-.716.432-.948.768-.232.328-.348.728-.348 1.2 0 .464.112.86.336 1.188.224.32.536.568.936.744.4.168.864.252 1.392.252zm10.268.504v-2.46h8.448l-.36.624v-.36c0-.456-.108-.892-.324-1.308-.216-.424-.552-.768-1.008-1.032-.448-.272-1.024-.408-1.728-.408s-1.312.152-1.824.456a2.932 2.932 0 00-1.164 1.284c-.264.56-.396 1.236-.396 2.028 0 .816.128 1.516.384 2.1A2.96 2.96 0 0098.799 29c.52.312 1.164.468 1.932.468.496 0 .924-.044 1.284-.132.36-.096.652-.216.876-.36.232-.144.408-.304.528-.48.12-.176.192-.348.216-.516h3.672c-.048.536-.232 1.064-.552 1.584-.32.512-.764.976-1.332 1.392-.568.408-1.26.732-2.076.972-.808.24-1.732.36-2.772.36-1.408 0-2.636-.28-3.684-.84-1.048-.568-1.86-1.348-2.436-2.34-.576-1-.864-2.152-.864-3.456 0-1.32.292-2.476.876-3.468a6.105 6.105 0 012.46-2.328c1.056-.56 2.276-.84 3.66-.84 1.416 0 2.64.284 3.672.852a5.86 5.86 0 012.388 2.364c.56 1.008.84 2.184.84 3.528 0 .2-.004.392-.012.576-.008.184-.02.32-.036.408H95.607zM118.787 32v-6.912a4.78 4.78 0 00-.204-1.44 2.033 2.033 0 00-.732-1.056c-.352-.264-.86-.396-1.524-.396-.576 0-1.076.132-1.5.396a2.588 2.588 0 00-.96 1.104c-.224.472-.336 1.016-.336 1.632l-1.032-.744c0-1.104.24-2.072.72-2.904a5.244 5.244 0 011.944-1.956c.824-.472 1.736-.708 2.736-.708 1.048 0 1.908.212 2.58.636.68.416 1.184 1 1.512 1.752.336.744.504 1.616.504 2.616V32h-3.708zm-8.976 0V19.256h3.72V32h-3.72zm21.889.288c-1.4 0-2.628-.28-3.684-.84a6.143 6.143 0 01-2.46-2.364c-.576-1.008-.864-2.172-.864-3.492 0-1.336.288-2.492.864-3.468.584-.984 1.404-1.748 2.46-2.292 1.056-.544 2.284-.816 3.684-.816 1.048 0 1.976.156 2.784.468.808.304 1.484.708 2.028 1.212a5.337 5.337 0 011.236 1.656c.28.6.42 1.196.42 1.788v.096h-3.684a.674.674 0 00-.012-.132.453.453 0 00-.024-.144 2.338 2.338 0 00-.42-.948c-.216-.296-.52-.536-.912-.72-.384-.192-.864-.288-1.44-.288-.616 0-1.168.136-1.656.408-.48.272-.86.676-1.14 1.212-.28.528-.42 1.184-.42 1.968 0 .768.14 1.432.42 1.992.28.552.66.976 1.14 1.272a3.13 3.13 0 001.656.444c.632 0 1.148-.096 1.548-.288.4-.2.7-.464.9-.792.2-.336.32-.704.36-1.104h3.684c0 .592-.14 1.196-.42 1.812a5.13 5.13 0 01-1.224 1.668c-.536.504-1.208.912-2.016 1.224-.808.312-1.744.468-2.808.468zm9.238 5.22c-.4 0-.76-.016-1.08-.048-.312-.024-.508-.052-.588-.084v-2.82c.104.048.284.084.54.108.264.032.544.048.84.048.392 0 .744-.08 1.056-.24.32-.152.592-.372.816-.66.232-.28.412-.612.54-.996l.216-.648-4.392-12.912h3.876l2.772 10.452h-.432l2.664-10.452h3.828l-4.38 13.38c-.328 1.008-.732 1.876-1.212 2.604a4.767 4.767 0 01-1.92 1.68c-.8.392-1.848.588-3.144.588z" fill="#fff"/><path d="M4.114 17.538L24 3.09l19.886 14.448-7.596 23.378H11.71L4.113 17.54z" stroke="#EF6D58" stroke-width="5"/><path d="M23.5 14l9.035 6.564-3.451 10.622H17.916l-3.451-10.622L23.5 14z" fill="#EF6D58"/></svg>