<svg width="148" height="146" fill="none" xmlns="http://www.w3.org/2000/svg"><path d="M74.891 110.547L74 108.793l-.891 1.754-15.762 31.016.458-34.788.026-1.968-1.605 1.139-28.37 20.139 16.573-30.59.937-1.73-1.95.262-34.48 4.648L37.828 79.29l1.634-1.096-1.849-.674-32.69-11.908 34.59-3.738 1.956-.212-1.324-1.455L16.733 34.47l32.365 12.764 1.83.722-.496-1.904-8.77-33.668 22.726 26.343 1.286 1.49.445-1.916L74 4.415l7.88 33.887.446 1.916 1.286-1.49 22.726-26.343-8.77 33.668-.496 1.904 1.83-.722 32.366-12.764-23.412 25.736-1.324 1.455 1.956.212 34.59 3.738-32.69 11.908-1.849.674 1.634 1.096 28.89 19.385-34.479-4.648-1.95-.263.937 1.73 16.573 30.591-28.37-20.139-1.605-1.139.026 1.968.458 34.788-15.762-31.016z" stroke="#6A6C8E" stroke-width="2"/></svg>