<svg width="64" height="64" fill="none" xmlns="http://www.w3.org/2000/svg"><circle cx="32" cy="32" r="32" fill="#EF6D58"/><path fill-rule="evenodd" clip-rule="evenodd" d="M33.513 43.956c5.935-.513 10.486-5.37 10.487-11.194 0-5.075-3.48-9.52-8.491-10.85.133-.452.04-.94-.25-1.316A1.545 1.545 0 0034.035 20h-3.066c-.482 0-.936.22-1.226.596-.29.376-.382.864-.25 1.316-5.75 1.524-9.358 7.088-8.312 12.82 1.046 5.733 6.398 9.736 12.333 9.224zm4.949-17.044l.003-.002-.003.001zm0 0l-7.587 4.236-4.338 7.42 7.589-4.239 4.336-7.417z" fill="#fff"/></svg>