<svg width="81" height="14" fill="none" xmlns="http://www.w3.org/2000/svg"><path d="M.046 13L3.294 1.168h2.128L8.646 13H7.238L4.35 2.056h.016L1.454 13H.046zm1.68-3.128v-1.2H6.99v1.2H1.726zM17.33 13l-2.376-8.496h1.208L18.41 12.4h-.248l1.488-7.896h1.416L19.234 13H17.33zm-5.744 0L9.738 4.504h1.416l1.504 7.896h-.248l2.224-7.896h1.208L13.498 13h-1.912zm18.025 0l-2.376-8.496h1.208L30.69 12.4h-.248l1.488-7.896h1.416L31.515 13H29.61zm-5.744 0l-1.848-8.496h1.416l1.504 7.896h-.248l2.224-7.896h1.208L25.779 13h-1.912zm18.025 0l-2.376-8.496h1.208l2.248 7.896h-.248l1.488-7.896h1.416L43.796 13h-1.904zm-5.744 0L34.3 4.504h1.416L37.22 12.4h-.248l2.224-7.896h1.208L38.06 13h-1.912zm13.997.16c-.645 0-1.21-.101-1.696-.304-.48-.203-.853-.493-1.12-.872-.267-.384-.4-.843-.4-1.376 0-.555.144-1.016.432-1.384.288-.373.694-.664 1.216-.872.523-.208 1.13-.347 1.824-.416 1.045-.107 1.79-.21 2.232-.312.443-.107.664-.277.664-.512v-.024c0-.49-.2-.856-.6-1.096-.4-.245-.979-.368-1.736-.368-.79 0-1.402.139-1.84.416-.437.272-.656.715-.656 1.328h-1.344c0-.635.163-1.173.488-1.616.325-.448.776-.79 1.352-1.024.581-.235 1.25-.352 2.008-.352.694 0 1.317.107 1.872.32.56.208 1.003.52 1.328.936.33.41.496.92.496 1.528v4.24c0 .187.008.368.024.544.016.176.043.33.08.464.048.16.102.29.16.392.059.096.107.163.144.2h-1.368a.983.983 0 01-.12-.184 2.061 2.061 0 01-.24-.752 4.004 4.004 0 01-.032-.512l.224.152a2.339 2.339 0 01-.728.76c-.314.219-.696.39-1.144.512a5.76 5.76 0 01-1.52.184zm.216-1.224a4.23 4.23 0 001.488-.248 2.42 2.42 0 001.056-.752c.261-.33.392-.741.392-1.232V8.016l.304.512a6.516 6.516 0 01-1.28.328 26.08 26.08 0 01-1.592.2c-.805.075-1.413.216-1.824.424-.405.208-.608.557-.608 1.048 0 .464.168.816.504 1.056.336.235.856.352 1.56.352zM56.927 13V4.504h1.36v2.608l-.448-.16a3.22 3.22 0 01.24-.928c.128-.31.304-.587.528-.832.23-.25.515-.448.856-.592.341-.15.742-.224 1.2-.224.342 0 .619.03.832.088.219.053.355.096.408.128l-.352 1.336a1.59 1.59 0 00-.328-.144c-.16-.059-.39-.088-.688-.088-.442 0-.81.08-1.104.24-.288.16-.517.373-.688.64a2.69 2.69 0 00-.352.856 4.16 4.16 0 00-.104.92V13h-1.36zm9.785.16a3.768 3.768 0 01-1.92-.504c-.581-.341-1.045-.84-1.392-1.496-.346-.661-.52-1.467-.52-2.416 0-.933.176-1.725.528-2.376.352-.65.819-1.144 1.4-1.48a3.693 3.693 0 011.904-.512c.656 0 1.27.157 1.84.472.576.31 1.04.741 1.392 1.296.352.555.528 1.197.528 1.928v.096l-.976.04v-.104c0-.464-.122-.883-.368-1.256a2.626 2.626 0 00-.952-.888 2.535 2.535 0 00-1.272-.336c-.757 0-1.384.256-1.88.768-.496.507-.744 1.29-.744 2.352 0 1.056.248 1.843.744 2.36.502.512 1.128.768 1.88.768.475 0 .907-.115 1.296-.344.395-.23.71-.536.944-.92.235-.39.352-.824.352-1.304l.976.024c0 .725-.168 1.379-.504 1.96a3.759 3.759 0 01-1.36 1.368 3.64 3.64 0 01-1.896.504zm2.784-.16V.496h1.368V13h-1.368zm7.007.16A6 6 0 0175.08 13a3.92 3.92 0 01-1.136-.48 2.392 2.392 0 01-.752-.784 2.113 2.113 0 01-.264-1.064v-.248h1.368v.176c0 .432.2.763.6.992.4.224.947.336 1.64.336.427 0 .808-.043 1.144-.128.336-.085.6-.216.792-.392a.852.852 0 00.296-.664c0-.443-.208-.757-.624-.944-.41-.192-1.026-.357-1.848-.496a10.38 10.38 0 01-1.232-.288 4.431 4.431 0 01-1.04-.472 2.268 2.268 0 01-.712-.712c-.17-.288-.256-.632-.256-1.032 0-.517.152-.955.456-1.312.31-.363.726-.637 1.248-.824a5.026 5.026 0 011.744-.288c.619 0 1.19.099 1.712.296.523.197.942.485 1.256.864.32.373.48.835.48 1.384v.16h-1.36v-.12c0-.31-.098-.563-.296-.76a1.769 1.769 0 00-.768-.448A3.27 3.27 0 0076.52 5.6a4.42 4.42 0 00-.992.112 1.97 1.97 0 00-.808.352.813.813 0 00-.32.68c0 .288.099.52.296.696.203.17.486.312.848.424.368.107.8.205 1.296.296.443.08.862.181 1.256.304.395.117.742.27 1.04.456.304.187.542.424.712.712.176.283.264.63.264 1.04 0 .416-.096.779-.288 1.088a2.31 2.31 0 01-.784.776c-.33.208-.714.363-1.152.464a5.74 5.74 0 01-1.384.16z" fill="#391400"/></svg>