<svg width="64" height="14" fill="none" xmlns="http://www.w3.org/2000/svg"><path d="M8.434 2.4H5.026l.312-.776V13h-1.36V1.624l.384.776H.89V1.2h7.544v1.2zm7.94 10.6V8.144c0-.816-.175-1.432-.527-1.848-.347-.416-.9-.624-1.656-.624-.507 0-.953.099-1.337.296a2.246 2.246 0 00-.887.808c-.214.341-.32.728-.32 1.16l-.864-.264c0-.608.157-1.16.472-1.656.32-.501.754-.899 1.303-1.192.555-.299 1.182-.448 1.88-.448 1.02 0 1.822.307 2.408.92.593.613.889 1.461.889 2.544V13h-1.36zm-6.087 0V.496h1.36V13h-1.36zm10.252-3.704V8.08h6.568l-.24.4v-.176a2.9 2.9 0 00-.312-1.344 2.348 2.348 0 00-.912-.984c-.405-.245-.907-.368-1.504-.368-.603 0-1.133.128-1.592.384a2.7 2.7 0 00-1.072 1.088c-.256.464-.384 1.019-.384 1.664 0 .656.123 1.221.368 1.696.25.475.605.84 1.064 1.096.459.256 1.003.384 1.632.384.448 0 .837-.045 1.168-.136.33-.096.603-.221.816-.376.219-.16.384-.333.496-.52a1.39 1.39 0 00.2-.56h1.36a2.48 2.48 0 01-.32 1.016c-.187.336-.45.643-.792.92a4.05 4.05 0 01-1.256.656c-.496.165-1.067.248-1.712.248-.853 0-1.605-.187-2.256-.56a4.05 4.05 0 01-1.536-1.552c-.368-.661-.552-1.421-.552-2.28 0-.87.187-1.632.56-2.288a4.035 4.035 0 011.544-1.552c.656-.373 1.405-.56 2.248-.56.859 0 1.603.187 2.232.56a3.81 3.81 0 011.456 1.536c.341.645.512 1.381.512 2.208 0 .085-.003.197-.008.336a1.893 1.893 0 01-.024.28h-7.752zM35.091 2.4l.616-.776v5.392l-.44-.432h4.776v1.2h-4.776l.44-.456V13h-1.36V1.2h6.408v1.2H35.09zM44.068 13L42.196 1.2h1.408l1.592 11.216-.208-.008L47.508 1.2h1.808l2.512 11.208-.208.008L53.212 1.2h1.416L52.74 13h-2.104L48.332 2.352h.16L46.18 13h-2.112zm10.712 0l3.248-11.832h2.128L63.38 13h-1.408L59.084 2.056h.016L56.188 13H54.78zm1.68-3.128v-1.2h5.264v1.2H56.46z" fill="#391400"/></svg>