<svg width="80" height="80" viewBox="0 0 80 80" fill="none" xmlns="http://www.w3.org/2000/svg">
<circle cx="40" cy="40" r="40" fill="#EF6C57"/>
<path fill-rule="evenodd" clip-rule="evenodd" d="M25 24C24.4477 24 24 24.4477 24 25V49.99V50V50.088C24.0213 51.6491 24.6522 53.1399 25.758 54.242C26.8817 55.3692 28.4084 56.0019 30 56H55C55.5523 56 56 55.5523 56 55V45C56 44.4477 55.5523 44 55 44H44.522L52.778 35.78C52.9661 35.5924 53.0718 35.3377 53.0718 35.072C53.0718 34.8063 52.9661 34.5516 52.778 34.364L45.708 27.292C45.3175 26.9016 44.6845 26.9016 44.294 27.292L36 35.554V25C36 24.4477 35.5523 24 35 24H25ZM50.656 35.068L36 49.668V38.376L44.998 29.412L50.656 35.068ZM33 50C33 48.3431 31.6569 47 30 47C28.3431 47 27 48.3431 27 50C27 51.6568 28.3431 53 30 53C31.6569 53 33 51.6568 33 50ZM42.516 46H54V54H34.486L42.516 46Z" fill="white"/>
</svg>
