<svg width="80" height="80" fill="none" xmlns="http://www.w3.org/2000/svg"><circle cx="40" cy="40" r="40" fill="#EF6C57"/><path fill-rule="evenodd" clip-rule="evenodd" d="M41.864 25.455c-.488-1.94-3.242-1.94-3.728 0l-.142.572a1.92 1.92 0 01-3.244.868l-.41-.422c-1.39-1.438-3.775-.058-3.225 1.862l.162.568a1.92 1.92 0 01-2.374 2.372l-.568-.16c-1.922-.55-3.3 1.835-1.862 3.225l.422.41a1.92 1.92 0 01-.868 3.244l-.572.142c-1.94.488-1.94 3.242 0 3.728l.572.142a1.92 1.92 0 01.868 3.244l-.422.41c-1.438 1.39-.058 3.775 1.862 3.225l.568-.161a1.92 1.92 0 012.372 2.373l-.16.568c-.55 1.922 1.835 3.3 3.225 1.862l.41-.422a1.92 1.92 0 013.244.868l.142.572c.488 1.94 3.242 1.94 3.728 0l.142-.572a1.92 1.92 0 013.244-.868l.41.422c1.39 1.438 3.775.058 3.225-1.862l-.161-.566a1.92 1.92 0 012.373-2.373l.568.16c1.922.55 3.3-1.836 1.862-3.226l-.422-.41a1.92 1.92 0 01.868-3.244l.572-.142c1.94-.488 1.94-3.242 0-3.728l-.572-.142a1.92 1.92 0 01-.868-3.244l.422-.41c1.438-1.39.058-3.775-1.862-3.225l-.566.162a1.92 1.92 0 01-2.373-2.374l.16-.568c.55-1.922-1.836-3.3-3.226-1.862l-.41.422a1.92 1.92 0 01-3.244-.868l-.142-.572zM40.5 41h9.445a9.995 9.995 0 01-15.113 7.557L40.5 41zm9.445-2a9.995 9.995 0 00-15.113-7.558l5.668 7.56h9.445V39zm-19.94 1a9.968 9.968 0 013.23-7.355L38.75 40l-5.516 7.355A9.963 9.963 0 0130.004 40z" fill="#fff"/></svg>