<svg width="147" height="17" fill="none" xmlns="http://www.w3.org/2000/svg"><path d="M9.573 8.896c0 .475-.088.963-.264 1.464a4.48 4.48 0 01-.8 1.384 3.97 3.97 0 01-1.336 1.024c-.538.261-1.17.392-1.896.392-.997 0-1.845-.259-2.544-.776-.698-.523-1.232-1.24-1.6-2.152C.771 9.32.59 8.277.59 7.104c0-1.179.182-2.221.544-3.128.368-.912.902-1.627 1.6-2.144.699-.517 1.547-.776 2.544-.776.832 0 1.542.17 2.128.512a4.12 4.12 0 011.4 1.304c.347.528.574 1.072.68 1.632.059.283.088.55.088.8H8.205c0-.144-.013-.31-.04-.496a3.046 3.046 0 00-.464-1.24 2.673 2.673 0 00-.968-.92c-.405-.235-.89-.352-1.456-.352-.661 0-1.24.181-1.736.544-.49.363-.874.901-1.152 1.616-.272.715-.408 1.597-.408 2.648 0 1.05.136 1.936.408 2.656.278.715.662 1.256 1.152 1.624.496.363 1.075.544 1.736.544.475 0 .894-.085 1.256-.256a2.76 2.76 0 00.912-.696c.25-.293.44-.619.568-.976.128-.363.192-.73.192-1.104h1.368zm5.498 4.264c-.816 0-1.515-.128-2.096-.384a2.885 2.885 0 01-1.328-1.176c-.31-.523-.464-1.173-.464-1.952v-.544h1.368v.52c0 .816.213 1.405.64 1.768.427.357 1.048.536 1.864.536.843 0 1.48-.144 1.912-.432.432-.288.648-.755.648-1.4 0-.453-.125-.83-.376-1.128-.245-.304-.587-.56-1.024-.768a10.322 10.322 0 00-1.528-.584 8.042 8.042 0 01-1.76-.768 3.746 3.746 0 01-1.216-1.144c-.293-.459-.44-1.016-.44-1.672 0-.64.155-1.181.464-1.624.315-.443.752-.779 1.312-1.008.56-.23 1.21-.344 1.952-.344.784 0 1.464.123 2.04.368.581.24 1.03.608 1.344 1.104.32.49.48 1.11.48 1.856v.6h-1.368V4.44c0-.779-.21-1.33-.632-1.656-.421-.33-1.035-.496-1.84-.496-.773 0-1.37.136-1.792.408-.421.272-.632.717-.632 1.336 0 .464.128.848.384 1.152.261.299.616.555 1.064.768.448.208.96.408 1.536.6.699.23 1.299.49 1.8.784.507.288.893.648 1.16 1.08.272.432.408.976.408 1.632 0 .656-.157 1.216-.472 1.68-.31.464-.755.819-1.336 1.064-.576.245-1.267.368-2.072.368zm9.39 0c-.815 0-1.514-.128-2.095-.384a2.886 2.886 0 01-1.328-1.176c-.31-.523-.464-1.173-.464-1.952v-.544h1.368v.52c0 .816.213 1.405.64 1.768.426.357 1.048.536 1.864.536.842 0 1.48-.144 1.912-.432.432-.288.648-.755.648-1.4 0-.453-.126-.83-.376-1.128-.246-.304-.587-.56-1.024-.768a10.318 10.318 0 00-1.528-.584 8.044 8.044 0 01-1.76-.768 3.746 3.746 0 01-1.216-1.144c-.294-.459-.44-1.016-.44-1.672 0-.64.154-1.181.464-1.624.314-.443.752-.779 1.312-1.008.56-.23 1.21-.344 1.952-.344.784 0 1.464.123 2.04.368.581.24 1.029.608 1.344 1.104.32.49.48 1.11.48 1.856v.6h-1.368V4.44c0-.779-.211-1.33-.632-1.656-.422-.33-1.035-.496-1.84-.496-.774 0-1.371.136-1.792.408-.422.272-.632.717-.632 1.336 0 .464.128.848.384 1.152.261.299.616.555 1.064.768.448.208.96.408 1.536.6.698.23 1.298.49 1.8.784.506.288.893.648 1.16 1.08.272.432.408.976.408 1.632 0 .656-.158 1.216-.472 1.68-.31.464-.755.819-1.336 1.064-.576.245-1.267.368-2.072.368zm9.823-.16V1.2h2.96c.779 0 1.48.136 2.104.408a4.41 4.41 0 011.608 1.176c.448.507.792 1.125 1.032 1.856.24.725.36 1.544.36 2.456 0 .912-.12 1.733-.36 2.464-.24.725-.584 1.344-1.032 1.856a4.41 4.41 0 01-1.608 1.176c-.624.272-1.325.408-2.104.408h-2.96zm1.376-.424l-.616-.776h2.04c.758 0 1.427-.19 2.008-.568.587-.384 1.046-.928 1.376-1.632.33-.704.496-1.539.496-2.504 0-.97-.165-1.805-.496-2.504-.33-.704-.79-1.245-1.376-1.624-.581-.379-1.25-.568-2.008-.568h-2.04l.616-.776v10.952zm9.16-3.28V8.08h6.568l-.24.4v-.176a2.9 2.9 0 00-.312-1.344 2.348 2.348 0 00-.912-.984c-.405-.245-.906-.368-1.504-.368-.602 0-1.133.128-1.592.384a2.7 2.7 0 00-1.072 1.088c-.256.464-.384 1.019-.384 1.664 0 .656.123 1.221.368 1.696.25.475.606.84 1.064 1.096.459.256 1.003.384 1.632.384a4.43 4.43 0 001.168-.136c.33-.096.603-.221.816-.376.219-.16.384-.333.496-.52a1.39 1.39 0 00.2-.56h1.36a2.48 2.48 0 01-.32 1.016 3.16 3.16 0 01-.792.92 4.05 4.05 0 01-1.256.656c-.496.165-1.066.248-1.712.248-.853 0-1.605-.187-2.256-.56a4.05 4.05 0 01-1.536-1.552c-.368-.661-.552-1.421-.552-2.28 0-.87.187-1.632.56-2.288a4.035 4.035 0 011.544-1.552c.656-.373 1.406-.56 2.248-.56.859 0 1.603.187 2.232.56a3.81 3.81 0 011.456 1.536c.342.645.512 1.381.512 2.208 0 .085-.002.197-.008.336a1.922 1.922 0 01-.024.28H44.82zm13.152 3.864a6 6 0 01-1.424-.16 3.92 3.92 0 01-1.136-.48 2.392 2.392 0 01-.752-.784 2.113 2.113 0 01-.264-1.064v-.248h1.368v.176c0 .432.2.763.6.992.4.224.947.336 1.64.336.427 0 .808-.043 1.144-.128.336-.085.6-.216.792-.392a.852.852 0 00.296-.664c0-.443-.208-.757-.624-.944-.41-.192-1.027-.357-1.848-.496-.432-.075-.843-.17-1.232-.288a4.433 4.433 0 01-1.04-.472 2.268 2.268 0 01-.712-.712c-.17-.288-.256-.632-.256-1.032 0-.517.152-.955.456-1.312.31-.363.725-.637 1.248-.824a5.027 5.027 0 011.744-.288c.619 0 1.19.099 1.712.296.523.197.941.485 1.256.864.32.373.48.835.48 1.384v.16h-1.36v-.12c0-.31-.099-.563-.296-.76a1.767 1.767 0 00-.768-.448 3.27 3.27 0 00-1.008-.152 4.42 4.42 0 00-.992.112 1.97 1.97 0 00-.808.352.813.813 0 00-.32.68c0 .288.099.52.296.696.203.17.485.312.848.424.368.107.8.205 1.296.296.443.08.861.181 1.256.304.395.117.741.27 1.04.456.304.187.541.424.712.712.176.283.264.63.264 1.04 0 .416-.096.779-.288 1.088a2.32 2.32 0 01-.784.776c-.33.208-.715.363-1.152.464a5.74 5.74 0 01-1.384.16zm5.8-.16V4.504h1.345V13h-1.344zm.68-10.448c-.25 0-.469-.07-.655-.208a.706.706 0 01-.272-.584c0-.24.09-.43.272-.568.186-.144.405-.216.656-.216.25 0 .466.072.648.216a.677.677 0 01.272.568c0 .245-.09.44-.272.584a1.036 1.036 0 01-.648.208zm8.618 9.928a4.35 4.35 0 011.208.256c.352.128.626.317.824.568.197.256.296.59.296 1 0 .453-.155.853-.464 1.2-.31.352-.779.627-1.408.824-.63.197-1.421.296-2.376.296-1.35 0-2.368-.197-3.056-.592-.688-.39-1.032-.923-1.032-1.6 0-.213.024-.403.072-.568.053-.16.112-.29.176-.392l1.296.192a1.103 1.103 0 00-.128.264 1.456 1.456 0 00-.056.424c0 .427.243.725.728.896.485.176 1.173.264 2.064.264.666 0 1.213-.045 1.64-.136.427-.09.744-.221.952-.392.208-.17.312-.37.312-.6 0-.347-.147-.563-.44-.648a5.665 5.665 0 00-1.072-.168l-3.232-.24c-.539-.043-.979-.208-1.32-.496-.336-.293-.504-.648-.504-1.064 0-.256.061-.499.184-.728.128-.23.275-.421.44-.576.17-.16.322-.256.456-.288l1.072.488c-.133.021-.299.115-.496.28-.192.16-.288.35-.288.568 0 .197.077.36.232.488.154.123.461.203.92.24l3 .24zm1.176-7.976h1.28l-.528 3.344a4.63 4.63 0 01-.6 1.696c-.304.501-.72.901-1.248 1.2-.523.293-1.17.44-1.944.44-.806 0-1.493-.147-2.064-.44-.57-.293-1.008-.693-1.312-1.2a3.32 3.32 0 01-.456-1.728c0-.65.157-1.235.472-1.752.32-.523.763-.933 1.328-1.232.565-.304 1.213-.456 1.944-.456.656 0 1.23.115 1.72.344.49.224.877.507 1.16.848.288.341.448.685.48 1.032l-.512.032.28-2.128zm-3.048 5.464c.517 0 .96-.085 1.328-.256a1.89 1.89 0 00.856-.744c.203-.325.304-.72.304-1.184 0-.448-.102-.835-.304-1.16a1.922 1.922 0 00-.856-.76c-.368-.181-.808-.272-1.32-.272-.49 0-.925.093-1.304.28a2.128 2.128 0 00-.88.768c-.208.33-.312.72-.312 1.168 0 .453.099.843.296 1.168.203.32.488.565.856.736.373.17.819.256 1.336.256zM83.476 13V7.872c0-.443-.075-.83-.224-1.16a1.639 1.639 0 00-.704-.768c-.32-.181-.739-.272-1.256-.272a2.4 2.4 0 00-1.264.352c-.384.23-.694.541-.928.936-.23.39-.344.827-.344 1.312l-.776-.296c0-.667.162-1.272.488-1.816.33-.544.768-.976 1.312-1.296a3.454 3.454 0 011.792-.488c.656 0 1.23.125 1.72.376.49.25.87.61 1.136 1.08.272.464.408 1.024.408 1.68V13h-1.36zm-6.08 0V4.504h1.36V13h-1.36zm13.212 0l3.248-11.832h2.128L99.208 13H97.8L94.912 2.056h.016L92.016 13h-1.408zm1.68-3.128v-1.2h5.264v1.2h-5.264zM107.892 13l-2.376-8.496h1.208l2.248 7.896h-.248l1.488-7.896h1.416L109.796 13h-1.904zm-5.744 0L100.3 4.504h1.416l1.504 7.896h-.248l2.224-7.896h1.208L104.06 13h-1.912zm13.997.16c-.645 0-1.211-.101-1.696-.304-.48-.203-.853-.493-1.12-.872-.267-.384-.4-.843-.4-1.376 0-.555.144-1.016.432-1.384.288-.373.693-.664 1.216-.872.523-.208 1.131-.347 1.824-.416 1.045-.107 1.789-.21 2.232-.312.443-.107.664-.277.664-.512v-.024c0-.49-.2-.856-.6-1.096-.4-.245-.979-.368-1.736-.368-.789 0-1.403.139-1.84.416-.437.272-.656.715-.656 1.328h-1.344c0-.635.163-1.173.488-1.616.325-.448.776-.79 1.352-1.024.581-.235 1.251-.352 2.008-.352.693 0 1.317.107 1.872.32.56.208 1.003.52 1.328.936.331.41.496.92.496 1.528v4.24c0 .187.008.368.024.544.016.176.043.33.08.464.048.16.101.29.16.392.059.096.107.163.144.2h-1.368a.943.943 0 01-.12-.184 2.054 2.054 0 01-.24-.752 4.06 4.06 0 01-.032-.512l.224.152a2.336 2.336 0 01-.728.76c-.315.219-.696.39-1.144.512a5.763 5.763 0 01-1.52.184zm.216-1.224a4.23 4.23 0 001.488-.248c.443-.17.795-.421 1.056-.752.261-.33.392-.741.392-1.232V8.016l.304.512a6.51 6.51 0 01-1.28.328 26.18 26.18 0 01-1.592.2c-.805.075-1.413.216-1.824.424-.405.208-.608.557-.608 1.048 0 .464.168.816.504 1.056.336.235.856.352 1.56.352zM122.927 13V4.504h1.36v2.608l-.448-.16a3.22 3.22 0 01.24-.928c.128-.31.304-.587.528-.832a2.42 2.42 0 01.856-.592c.341-.15.741-.224 1.2-.224.341 0 .619.03.832.088.219.053.355.096.408.128l-.352 1.336a1.593 1.593 0 00-.328-.144c-.16-.059-.389-.088-.688-.088-.443 0-.811.08-1.104.24-.288.16-.517.373-.688.64a2.688 2.688 0 00-.352.856c-.069.31-.104.616-.104.92V13h-1.36zm9.785.16a3.772 3.772 0 01-1.92-.504c-.581-.341-1.045-.84-1.392-1.496-.346-.661-.52-1.467-.52-2.416 0-.933.176-1.725.528-2.376.352-.65.819-1.144 1.4-1.48a3.695 3.695 0 011.904-.512c.656 0 1.27.157 1.84.472.576.31 1.04.741 1.392 1.296.352.555.528 1.197.528 1.928v.096l-.976.04v-.104c0-.464-.122-.883-.368-1.256a2.623 2.623 0 00-.952-.888 2.532 2.532 0 00-1.272-.336c-.757 0-1.384.256-1.88.768-.496.507-.744 1.29-.744 2.352 0 1.056.248 1.843.744 2.36.502.512 1.128.768 1.88.768.475 0 .907-.115 1.296-.344.395-.23.71-.536.944-.92.235-.39.352-.824.352-1.304l.976.024c0 .725-.168 1.379-.504 1.96a3.756 3.756 0 01-1.36 1.368 3.639 3.639 0 01-1.896.504zm2.784-.16V.496h1.368V13h-1.368zm7.007.16c-.512 0-.986-.053-1.424-.16a3.928 3.928 0 01-1.136-.48 2.4 2.4 0 01-.752-.784 2.113 2.113 0 01-.264-1.064v-.248h1.368v.176c0 .432.2.763.6.992.4.224.947.336 1.64.336a4.66 4.66 0 001.144-.128c.336-.085.6-.216.792-.392a.85.85 0 00.296-.664c0-.443-.208-.757-.624-.944-.41-.192-1.026-.357-1.848-.496a10.38 10.38 0 01-1.232-.288 4.439 4.439 0 01-1.04-.472 2.275 2.275 0 01-.712-.712c-.17-.288-.256-.632-.256-1.032 0-.517.152-.955.456-1.312.31-.363.726-.637 1.248-.824a5.028 5.028 0 011.744-.288c.619 0 1.19.099 1.712.296.523.197.942.485 1.256.864.32.373.48.835.48 1.384v.16h-1.36v-.12c0-.31-.098-.563-.296-.76a1.764 1.764 0 00-.768-.448 3.263 3.263 0 00-1.008-.152c-.336 0-.666.037-.992.112a1.99 1.99 0 00-.808.352.814.814 0 00-.32.68c0 .288.099.52.296.696.203.17.486.312.848.424.368.107.8.205 1.296.296.443.08.862.181 1.256.304.395.117.742.27 1.04.456.304.187.542.424.712.712.176.283.264.63.264 1.04 0 .416-.096.779-.288 1.088a2.31 2.31 0 01-.784.776c-.33.208-.714.363-1.152.464a5.74 5.74 0 01-1.384.16z" fill="#391400"/></svg>