<svg width="147" height="17" viewBox="0 0 147 17" fill="none" xmlns="http://www.w3.org/2000/svg">
<path d="M9.57325 8.896C9.57325 9.37067 9.48525 9.85867 9.30925 10.36C9.13325 10.856 8.86658 11.3173 8.50925 11.744C8.15725 12.1653 7.71192 12.5067 7.17325 12.768C6.63458 13.0293 6.00258 13.16 5.27725 13.16C4.27992 13.16 3.43192 12.9013 2.73325 12.384C2.03458 11.8613 1.50125 11.144 1.13325 10.232C0.770583 9.32 0.58925 8.27733 0.58925 7.104C0.58925 5.92533 0.770583 4.88267 1.13325 3.976C1.50125 3.064 2.03458 2.34933 2.73325 1.832C3.43192 1.31467 4.27992 1.056 5.27725 1.056C6.10925 1.056 6.81858 1.22667 7.40525 1.568C7.99192 1.90933 8.45858 2.344 8.80525 2.872C9.15192 3.4 9.37858 3.944 9.48525 4.504C9.54392 4.78667 9.57325 5.05333 9.57325 5.304H8.20525C8.20525 5.16 8.19192 4.99467 8.16525 4.808C8.10125 4.36 7.94658 3.94667 7.70125 3.568C7.46125 3.184 7.13858 2.87733 6.73325 2.648C6.32792 2.41333 5.84258 2.296 5.27725 2.296C4.61592 2.296 4.03725 2.47733 3.54125 2.84C3.05058 3.20267 2.66658 3.74133 2.38925 4.456C2.11725 5.17067 1.98125 6.05333 1.98125 7.104C1.98125 8.15467 2.11725 9.04 2.38925 9.76C2.66658 10.4747 3.05058 11.016 3.54125 11.384C4.03725 11.7467 4.61592 11.928 5.27725 11.928C5.75192 11.928 6.17058 11.8427 6.53325 11.672C6.89592 11.496 7.19992 11.264 7.44525 10.976C7.69592 10.6827 7.88525 10.3573 8.01325 10C8.14125 9.63733 8.20525 9.26933 8.20525 8.896H9.57325ZM15.071 13.16C14.255 13.16 13.5563 13.032 12.975 12.776C12.399 12.5147 11.9563 12.1227 11.647 11.6C11.3377 11.0773 11.183 10.4267 11.183 9.648C11.183 9.54133 11.183 9.45067 11.183 9.376C11.183 9.30133 11.183 9.21067 11.183 9.104H12.551C12.551 9.20533 12.551 9.29067 12.551 9.36C12.551 9.42933 12.551 9.51733 12.551 9.624C12.551 10.44 12.7643 11.0293 13.191 11.392C13.6177 11.7493 14.239 11.928 15.055 11.928C15.8977 11.928 16.535 11.784 16.967 11.496C17.399 11.208 17.615 10.7413 17.615 10.096C17.615 9.64267 17.4897 9.26667 17.239 8.968C16.9937 8.664 16.6523 8.408 16.215 8.2C15.7777 7.98667 15.2683 7.792 14.687 7.616C14.031 7.41333 13.4443 7.15733 12.927 6.848C12.415 6.53867 12.0097 6.15733 11.711 5.704C11.4177 5.24533 11.271 4.688 11.271 4.032C11.271 3.392 11.4257 2.85067 11.735 2.408C12.0497 1.96533 12.487 1.62933 13.047 1.4C13.607 1.17067 14.2577 1.056 14.999 1.056C15.783 1.056 16.463 1.17867 17.039 1.424C17.6203 1.664 18.0683 2.032 18.383 2.528C18.703 3.01867 18.863 3.63733 18.863 4.384C18.863 4.50133 18.863 4.60267 18.863 4.688C18.863 4.768 18.863 4.86667 18.863 4.984H17.495C17.495 4.88267 17.495 4.792 17.495 4.712C17.495 4.632 17.495 4.54133 17.495 4.44C17.495 3.66133 17.2843 3.10933 16.863 2.784C16.4417 2.45333 15.8283 2.288 15.023 2.288C14.2497 2.288 13.6523 2.424 13.231 2.696C12.8097 2.968 12.599 3.41333 12.599 4.032C12.599 4.496 12.727 4.88 12.983 5.184C13.2443 5.48267 13.599 5.73867 14.047 5.952C14.495 6.16 15.007 6.36 15.583 6.552C16.2817 6.78133 16.8817 7.04267 17.383 7.336C17.8897 7.624 18.2763 7.984 18.543 8.416C18.815 8.848 18.951 9.392 18.951 10.048C18.951 10.704 18.7937 11.264 18.479 11.728C18.1697 12.192 17.7243 12.5467 17.143 12.792C16.567 13.0373 15.8763 13.16 15.071 13.16ZM24.4616 13.16C23.6456 13.16 22.947 13.032 22.3656 12.776C21.7896 12.5147 21.347 12.1227 21.0376 11.6C20.7283 11.0773 20.5736 10.4267 20.5736 9.648C20.5736 9.54133 20.5736 9.45067 20.5736 9.376C20.5736 9.30133 20.5736 9.21067 20.5736 9.104H21.9416C21.9416 9.20533 21.9416 9.29067 21.9416 9.36C21.9416 9.42933 21.9416 9.51733 21.9416 9.624C21.9416 10.44 22.155 11.0293 22.5816 11.392C23.0083 11.7493 23.6296 11.928 24.4456 11.928C25.2883 11.928 25.9256 11.784 26.3576 11.496C26.7896 11.208 27.0056 10.7413 27.0056 10.096C27.0056 9.64267 26.8803 9.26667 26.6296 8.968C26.3843 8.664 26.043 8.408 25.6056 8.2C25.1683 7.98667 24.659 7.792 24.0776 7.616C23.4216 7.41333 22.835 7.15733 22.3176 6.848C21.8056 6.53867 21.4003 6.15733 21.1016 5.704C20.8083 5.24533 20.6616 4.688 20.6616 4.032C20.6616 3.392 20.8163 2.85067 21.1256 2.408C21.4403 1.96533 21.8776 1.62933 22.4376 1.4C22.9976 1.17067 23.6483 1.056 24.3896 1.056C25.1736 1.056 25.8536 1.17867 26.4296 1.424C27.011 1.664 27.459 2.032 27.7736 2.528C28.0936 3.01867 28.2536 3.63733 28.2536 4.384C28.2536 4.50133 28.2536 4.60267 28.2536 4.688C28.2536 4.768 28.2536 4.86667 28.2536 4.984H26.8856C26.8856 4.88267 26.8856 4.792 26.8856 4.712C26.8856 4.632 26.8856 4.54133 26.8856 4.44C26.8856 3.66133 26.675 3.10933 26.2536 2.784C25.8323 2.45333 25.219 2.288 24.4136 2.288C23.6403 2.288 23.043 2.424 22.6216 2.696C22.2003 2.968 21.9896 3.41333 21.9896 4.032C21.9896 4.496 22.1176 4.88 22.3736 5.184C22.635 5.48267 22.9896 5.73867 23.4376 5.952C23.8856 6.16 24.3976 6.36 24.9736 6.552C25.6723 6.78133 26.2723 7.04267 26.7736 7.336C27.2803 7.624 27.667 7.984 27.9336 8.416C28.2056 8.848 28.3416 9.392 28.3416 10.048C28.3416 10.704 28.1843 11.264 27.8696 11.728C27.5603 12.192 27.115 12.5467 26.5336 12.792C25.9576 13.0373 25.267 13.16 24.4616 13.16ZM34.2843 13V1.2H37.2443C38.0229 1.2 38.7243 1.336 39.3483 1.608C39.9776 1.88 40.5136 2.272 40.9563 2.784C41.4043 3.29067 41.7483 3.90933 41.9883 4.64C42.2283 5.36533 42.3483 6.184 42.3483 7.096C42.3483 8.008 42.2283 8.82933 41.9883 9.56C41.7483 10.2853 41.4043 10.904 40.9563 11.416C40.5136 11.928 39.9776 12.32 39.3483 12.592C38.7243 12.864 38.0229 13 37.2443 13H34.2843ZM35.6603 12.576L35.0443 11.8H37.0843C37.8416 11.8 38.5109 11.6107 39.0923 11.232C39.6789 10.848 40.1376 10.304 40.4683 9.6C40.7989 8.896 40.9643 8.06133 40.9643 7.096C40.9643 6.12533 40.7989 5.29067 40.4683 4.592C40.1376 3.888 39.6789 3.34667 39.0923 2.968C38.5109 2.58933 37.8416 2.4 37.0843 2.4H35.0443L35.6603 1.624V12.576ZM44.8203 9.296V8.08H51.3883L51.1483 8.48C51.1483 8.448 51.1483 8.41867 51.1483 8.392C51.1483 8.36 51.1483 8.33067 51.1483 8.304C51.1483 7.81333 51.0443 7.36533 50.8363 6.96C50.6336 6.54933 50.3296 6.22133 49.9243 5.976C49.5189 5.73067 49.0176 5.608 48.4203 5.608C47.8176 5.608 47.2869 5.736 46.8283 5.992C46.3696 6.248 46.0123 6.61067 45.7563 7.08C45.5003 7.544 45.3723 8.09867 45.3723 8.744C45.3723 9.4 45.4949 9.96533 45.7403 10.44C45.9909 10.9147 46.3456 11.28 46.8043 11.536C47.2629 11.792 47.8069 11.92 48.4363 11.92C48.8843 11.92 49.2736 11.8747 49.6043 11.784C49.9349 11.688 50.2069 11.5627 50.4203 11.408C50.6389 11.248 50.8043 11.0747 50.9163 10.888C51.0283 10.7013 51.0949 10.5147 51.1163 10.328H52.4763C52.4496 10.6693 52.3429 11.008 52.1562 11.344C51.9696 11.68 51.7056 11.9867 51.3643 12.264C51.0229 12.536 50.6043 12.7547 50.1083 12.92C49.6123 13.0853 49.0416 13.168 48.3963 13.168C47.5429 13.168 46.7909 12.9813 46.1403 12.608C45.4896 12.2347 44.9776 11.7173 44.6043 11.056C44.2363 10.3947 44.0523 9.63467 44.0523 8.776C44.0523 7.90667 44.2389 7.144 44.6123 6.488C44.9856 5.82667 45.5003 5.30933 46.1563 4.936C46.8123 4.56267 47.5616 4.376 48.4043 4.376C49.2629 4.376 50.0069 4.56267 50.6363 4.936C51.2656 5.30933 51.7509 5.82133 52.0923 6.472C52.4336 7.11733 52.6043 7.85333 52.6043 8.68C52.6043 8.76533 52.6016 8.87733 52.5963 9.016C52.5909 9.15467 52.5829 9.248 52.5723 9.296H44.8203ZM57.972 13.16C57.46 13.16 56.9853 13.1067 56.548 13C56.116 12.888 55.7373 12.728 55.412 12.52C55.092 12.3067 54.8413 12.0453 54.66 11.736C54.484 11.4267 54.396 11.072 54.396 10.672C54.396 10.6293 54.396 10.5867 54.396 10.544C54.396 10.496 54.396 10.456 54.396 10.424H55.764C55.764 10.456 55.764 10.4827 55.764 10.504C55.764 10.5253 55.764 10.5573 55.764 10.6C55.764 11.032 55.964 11.3627 56.364 11.592C56.764 11.816 57.3107 11.928 58.004 11.928C58.4307 11.928 58.812 11.8853 59.148 11.8C59.484 11.7147 59.748 11.584 59.94 11.408C60.1373 11.232 60.236 11.0107 60.236 10.744C60.236 10.3013 60.028 9.98667 59.612 9.8C59.2013 9.608 58.5853 9.44267 57.764 9.304C57.332 9.22933 56.9213 9.13333 56.532 9.016C56.1427 8.89333 55.796 8.736 55.492 8.544C55.1933 8.352 54.956 8.11467 54.78 7.832C54.6093 7.544 54.524 7.2 54.524 6.8C54.524 6.28267 54.676 5.84533 54.98 5.488C55.2893 5.12533 55.7053 4.85067 56.228 4.664C56.7507 4.472 57.332 4.376 57.972 4.376C58.5907 4.376 59.1613 4.47467 59.684 4.672C60.2067 4.86933 60.6253 5.15733 60.94 5.536C61.26 5.90933 61.42 6.37067 61.42 6.92C61.42 6.94133 61.42 6.968 61.42 7C61.42 7.02667 61.42 7.05333 61.42 7.08H60.06C60.06 7.05333 60.06 7.032 60.06 7.016C60.06 7 60.06 6.98133 60.06 6.96C60.06 6.65067 59.9613 6.39733 59.764 6.2C59.5667 5.99733 59.3107 5.848 58.996 5.752C58.6813 5.65067 58.3453 5.6 57.988 5.6C57.652 5.6 57.3213 5.63733 56.996 5.712C56.6707 5.78133 56.4013 5.89867 56.188 6.064C55.9747 6.22933 55.868 6.456 55.868 6.744C55.868 7.032 55.9667 7.264 56.164 7.44C56.3667 7.61067 56.6493 7.752 57.012 7.864C57.38 7.97067 57.812 8.06933 58.308 8.16C58.7507 8.24 59.1693 8.34133 59.564 8.464C59.9587 8.58133 60.3053 8.73333 60.604 8.92C60.908 9.10667 61.1453 9.344 61.316 9.632C61.492 9.91467 61.58 10.2613 61.58 10.672C61.58 11.088 61.484 11.4507 61.292 11.76C61.1053 12.0693 60.844 12.328 60.508 12.536C60.1773 12.744 59.7933 12.8987 59.356 13C58.924 13.1067 58.4627 13.16 57.972 13.16ZM63.7728 13V4.504H65.1168V13H63.7728ZM64.4528 2.552C64.2021 2.552 63.9834 2.48267 63.7968 2.344C63.6154 2.2 63.5247 2.00533 63.5247 1.76C63.5247 1.52 63.6154 1.33067 63.7968 1.192C63.9834 1.048 64.2021 0.976 64.4528 0.976C64.7034 0.976 64.9194 1.048 65.1008 1.192C65.2821 1.33067 65.3728 1.52 65.3728 1.76C65.3728 2.00533 65.2821 2.2 65.1008 2.344C64.9194 2.48267 64.7034 2.552 64.4528 2.552ZM73.0699 12.48C73.5285 12.5173 73.9312 12.6027 74.2779 12.736C74.6299 12.864 74.9045 13.0533 75.1019 13.304C75.2992 13.56 75.3979 13.8933 75.3979 14.304C75.3979 14.7573 75.2432 15.1573 74.9339 15.504C74.6245 15.856 74.1552 16.1307 73.5259 16.328C72.8965 16.5253 72.1045 16.624 71.1499 16.624C69.8005 16.624 68.7819 16.4267 68.0939 16.032C67.4059 15.6427 67.0619 15.1093 67.0619 14.432C67.0619 14.2187 67.0859 14.0293 67.1339 13.864C67.1872 13.704 67.2459 13.5733 67.3099 13.472L68.6059 13.664C68.5632 13.7227 68.5205 13.8107 68.4779 13.928C68.4405 14.0507 68.4219 14.192 68.4219 14.352C68.4219 14.7787 68.6645 15.0773 69.1499 15.248C69.6352 15.424 70.3232 15.512 71.2139 15.512C71.8805 15.512 72.4272 15.4667 72.8539 15.376C73.2805 15.2853 73.5979 15.1547 73.8059 14.984C74.0139 14.8133 74.1179 14.6133 74.1179 14.384C74.1179 14.0373 73.9712 13.8213 73.6779 13.736C73.3899 13.656 73.0325 13.6 72.6059 13.568L69.3739 13.328C68.8352 13.2853 68.3952 13.12 68.0539 12.832C67.7179 12.5387 67.5499 12.184 67.5499 11.768C67.5499 11.512 67.6112 11.2693 67.7339 11.04C67.8619 10.8107 68.0085 10.6187 68.1739 10.464C68.3445 10.304 68.4965 10.208 68.6299 10.176L69.7019 10.664C69.5685 10.6853 69.4032 10.7787 69.2059 10.944C69.0139 11.104 68.9179 11.2933 68.9179 11.512C68.9179 11.7093 68.9952 11.872 69.1499 12C69.3045 12.1227 69.6112 12.2027 70.0699 12.24L73.0699 12.48ZM74.2459 4.504H75.5259L74.9979 7.848C74.9019 8.472 74.7019 9.03733 74.3979 9.544C74.0939 10.0453 73.6779 10.4453 73.1499 10.744C72.6272 11.0373 71.9792 11.184 71.2059 11.184C70.4005 11.184 69.7125 11.0373 69.1419 10.744C68.5712 10.4507 68.1339 10.0507 67.8299 9.544C67.5259 9.032 67.3739 8.456 67.3739 7.816C67.3739 7.16533 67.5312 6.58133 67.8459 6.064C68.1659 5.54133 68.6085 5.13067 69.1739 4.832C69.7392 4.528 70.3872 4.376 71.1179 4.376C71.7739 4.376 72.3472 4.49067 72.8379 4.72C73.3285 4.944 73.7152 5.22667 73.9979 5.568C74.2859 5.90933 74.4459 6.25333 74.4779 6.6L73.9659 6.632L74.2459 4.504ZM71.1979 9.968C71.7152 9.968 72.1579 9.88267 72.5259 9.712C72.8992 9.54133 73.1845 9.29333 73.3819 8.968C73.5845 8.64267 73.6859 8.248 73.6859 7.784C73.6859 7.336 73.5845 6.94933 73.3819 6.624C73.1845 6.29333 72.8992 6.04 72.5259 5.864C72.1579 5.68267 71.7179 5.592 71.2059 5.592C70.7152 5.592 70.2805 5.68533 69.9019 5.872C69.5285 6.05333 69.2352 6.30933 69.0219 6.64C68.8139 6.97067 68.7099 7.36 68.7099 7.808C68.7099 8.26133 68.8085 8.65067 69.0059 8.976C69.2085 9.296 69.4939 9.54133 69.8619 9.712C70.2352 9.88267 70.6805 9.968 71.1979 9.968ZM83.4759 13V8.928C83.4759 8.68267 83.4759 8.48267 83.4759 8.328C83.4759 8.168 83.4759 8.016 83.4759 7.872C83.4759 7.42933 83.4012 7.04267 83.2519 6.712C83.1025 6.38133 82.8679 6.12533 82.5479 5.944C82.2279 5.76267 81.8092 5.672 81.2919 5.672C80.8385 5.672 80.4172 5.78933 80.0279 6.024C79.6439 6.25333 79.3345 6.56533 79.0999 6.96C78.8705 7.34933 78.7559 7.78667 78.7559 8.272L77.9799 7.976C77.9799 7.30933 78.1425 6.704 78.4679 6.16C78.7985 5.616 79.2359 5.184 79.7799 4.864C80.3292 4.53867 80.9265 4.376 81.5719 4.376C82.2279 4.376 82.8012 4.50133 83.2919 4.752C83.7825 5.00267 84.1612 5.36267 84.4279 5.832C84.6999 6.296 84.8359 6.856 84.8359 7.512C84.8359 7.74667 84.8359 8.00267 84.8359 8.28C84.8359 8.55733 84.8359 8.816 84.8359 9.056V13H83.4759ZM77.3959 13V4.504H78.7559V13H77.3959ZM90.6084 13L93.8564 1.168H95.9844L99.2084 13H97.8004L94.9124 2.056H94.9284L92.0164 13H90.6084ZM92.2884 9.872V8.672H97.5524V9.872H92.2884ZM107.892 13L105.516 4.504H106.724L108.972 12.4H108.724L110.212 4.504H111.628L109.796 13H107.892ZM102.148 13L100.3 4.504H101.716L103.22 12.4H102.972L105.196 4.504H106.404L104.06 13H102.148ZM116.145 13.16C115.5 13.16 114.934 13.0587 114.449 12.856C113.969 12.6533 113.596 12.3627 113.329 11.984C113.062 11.6 112.929 11.1413 112.929 10.608C112.929 10.0533 113.073 9.592 113.361 9.224C113.649 8.85067 114.054 8.56 114.577 8.352C115.1 8.144 115.708 8.00533 116.401 7.936C117.446 7.82933 118.19 7.72533 118.633 7.624C119.076 7.51733 119.297 7.34667 119.297 7.112C119.297 7.10667 119.297 7.104 119.297 7.104C119.297 7.09867 119.297 7.09333 119.297 7.088C119.297 6.59733 119.097 6.232 118.697 5.992C118.297 5.74667 117.718 5.624 116.961 5.624C116.172 5.624 115.558 5.76267 115.121 6.04C114.684 6.312 114.465 6.75467 114.465 7.368H113.121C113.121 6.73333 113.284 6.19467 113.609 5.752C113.934 5.304 114.385 4.96267 114.961 4.728C115.542 4.49333 116.212 4.376 116.969 4.376C117.662 4.376 118.286 4.48267 118.841 4.696C119.401 4.904 119.844 5.216 120.169 5.632C120.5 6.04267 120.665 6.552 120.665 7.16C120.665 7.272 120.665 7.384 120.665 7.496C120.665 7.60267 120.665 7.712 120.665 7.824V11.4C120.665 11.5867 120.673 11.768 120.689 11.944C120.705 12.12 120.732 12.2747 120.769 12.408C120.817 12.568 120.87 12.6987 120.929 12.8C120.988 12.896 121.036 12.9627 121.073 13H119.705C119.678 12.9733 119.638 12.912 119.585 12.816C119.532 12.7147 119.481 12.5973 119.433 12.464C119.396 12.3573 119.366 12.224 119.345 12.064C119.324 11.8987 119.313 11.728 119.313 11.552L119.537 11.704C119.372 11.992 119.129 12.2453 118.809 12.464C118.494 12.6827 118.113 12.8533 117.665 12.976C117.217 13.0987 116.71 13.16 116.145 13.16ZM116.361 11.936C116.91 11.936 117.406 11.8533 117.849 11.688C118.292 11.5173 118.644 11.2667 118.905 10.936C119.166 10.6053 119.297 10.1947 119.297 9.704V8.016L119.601 8.528C119.26 8.66133 118.833 8.77067 118.321 8.856C117.814 8.936 117.284 9.00267 116.729 9.056C115.924 9.13067 115.316 9.272 114.905 9.48C114.5 9.688 114.297 10.0373 114.297 10.528C114.297 10.992 114.465 11.344 114.801 11.584C115.137 11.8187 115.657 11.936 116.361 11.936ZM122.927 13V4.504H124.287V7.112L123.839 6.952C123.871 6.63733 123.951 6.328 124.079 6.024C124.207 5.71467 124.383 5.43733 124.607 5.192C124.836 4.94133 125.122 4.744 125.463 4.6C125.804 4.45067 126.204 4.376 126.663 4.376C127.004 4.376 127.282 4.40533 127.495 4.464C127.714 4.51733 127.85 4.56 127.903 4.592L127.551 5.928C127.498 5.89067 127.388 5.84267 127.223 5.784C127.063 5.72533 126.834 5.696 126.535 5.696C126.092 5.696 125.724 5.776 125.431 5.936C125.143 6.096 124.914 6.30933 124.743 6.576C124.578 6.83733 124.46 7.12267 124.391 7.432C124.322 7.74133 124.287 8.048 124.287 8.352V13H122.927ZM132.712 13.16C132.014 13.16 131.374 12.992 130.792 12.656C130.211 12.3147 129.747 11.816 129.4 11.16C129.054 10.4987 128.88 9.69333 128.88 8.744C128.88 7.81067 129.056 7.01867 129.408 6.368C129.76 5.71733 130.227 5.224 130.808 4.888C131.39 4.54667 132.024 4.376 132.712 4.376C133.368 4.376 133.982 4.53333 134.552 4.848C135.128 5.15733 135.592 5.58933 135.944 6.144C136.296 6.69867 136.472 7.34133 136.472 8.072C136.472 8.088 136.472 8.104 136.472 8.12C136.472 8.136 136.472 8.152 136.472 8.168L135.496 8.208C135.496 8.192 135.496 8.176 135.496 8.16C135.496 8.13867 135.496 8.12 135.496 8.104C135.496 7.64 135.374 7.22133 135.128 6.848C134.888 6.47467 134.571 6.17867 134.176 5.96C133.782 5.736 133.358 5.624 132.904 5.624C132.147 5.624 131.52 5.88 131.024 6.392C130.528 6.89867 130.28 7.68267 130.28 8.744C130.28 9.8 130.528 10.5867 131.024 11.104C131.526 11.616 132.152 11.872 132.904 11.872C133.379 11.872 133.811 11.7573 134.2 11.528C134.595 11.2987 134.91 10.992 135.144 10.608C135.379 10.2187 135.496 9.784 135.496 9.304L136.472 9.328C136.472 10.0533 136.304 10.7067 135.968 11.288C135.632 11.864 135.179 12.32 134.608 12.656C134.043 12.992 133.411 13.16 132.712 13.16ZM135.496 13V0.495999H136.864V13H135.496ZM142.503 13.16C141.991 13.16 141.517 13.1067 141.079 13C140.647 12.888 140.269 12.728 139.943 12.52C139.623 12.3067 139.373 12.0453 139.191 11.736C139.015 11.4267 138.927 11.072 138.927 10.672C138.927 10.6293 138.927 10.5867 138.927 10.544C138.927 10.496 138.927 10.456 138.927 10.424H140.295C140.295 10.456 140.295 10.4827 140.295 10.504C140.295 10.5253 140.295 10.5573 140.295 10.6C140.295 11.032 140.495 11.3627 140.895 11.592C141.295 11.816 141.842 11.928 142.535 11.928C142.962 11.928 143.343 11.8853 143.679 11.8C144.015 11.7147 144.279 11.584 144.471 11.408C144.669 11.232 144.767 11.0107 144.767 10.744C144.767 10.3013 144.559 9.98667 144.143 9.8C143.733 9.608 143.117 9.44267 142.295 9.304C141.863 9.22933 141.453 9.13333 141.063 9.016C140.674 8.89333 140.327 8.736 140.023 8.544C139.725 8.352 139.487 8.11467 139.311 7.832C139.141 7.544 139.055 7.2 139.055 6.8C139.055 6.28267 139.207 5.84533 139.511 5.488C139.821 5.12533 140.237 4.85067 140.759 4.664C141.282 4.472 141.863 4.376 142.503 4.376C143.122 4.376 143.693 4.47467 144.215 4.672C144.738 4.86933 145.157 5.15733 145.471 5.536C145.791 5.90933 145.951 6.37067 145.951 6.92C145.951 6.94133 145.951 6.968 145.951 7C145.951 7.02667 145.951 7.05333 145.951 7.08H144.591C144.591 7.05333 144.591 7.032 144.591 7.016C144.591 7 144.591 6.98133 144.591 6.96C144.591 6.65067 144.493 6.39733 144.295 6.2C144.098 5.99733 143.842 5.848 143.527 5.752C143.213 5.65067 142.877 5.6 142.519 5.6C142.183 5.6 141.853 5.63733 141.527 5.712C141.202 5.78133 140.933 5.89867 140.719 6.064C140.506 6.22933 140.399 6.456 140.399 6.744C140.399 7.032 140.498 7.264 140.695 7.44C140.898 7.61067 141.181 7.752 141.543 7.864C141.911 7.97067 142.343 8.06933 142.839 8.16C143.282 8.24 143.701 8.34133 144.095 8.464C144.49 8.58133 144.837 8.73333 145.135 8.92C145.439 9.10667 145.677 9.344 145.847 9.632C146.023 9.91467 146.111 10.2613 146.111 10.672C146.111 11.088 146.015 11.4507 145.823 11.76C145.637 12.0693 145.375 12.328 145.039 12.536C144.709 12.744 144.325 12.8987 143.887 13C143.455 13.1067 142.994 13.16 142.503 13.16Z" fill="#391400"/>
</svg>
