<svg width="81" height="14" viewBox="0 0 81 14" fill="none" xmlns="http://www.w3.org/2000/svg">
<path d="M0.045875 13L3.29388 1.168H5.42188L8.64587 13H7.23788L4.34988 2.056H4.36588L1.45388 13H0.045875ZM1.72588 9.872V8.672H6.98988V9.872H1.72588ZM17.3296 13L14.9536 4.504H16.1616L18.4096 12.4H18.1616L19.6496 4.504H21.0656L19.2336 13H17.3296ZM11.5856 13L9.73763 4.504H11.1536L12.6576 12.4H12.4096L14.6336 4.504H15.8416L13.4976 13H11.5856ZM29.6109 13L27.2349 4.504H28.4429L30.6909 12.4H30.4429L31.9309 4.504H33.3469L31.5149 13H29.6109ZM23.8669 13L22.0189 4.504H23.4349L24.9389 12.4H24.6909L26.9149 4.504H28.1229L25.7789 13H23.8669ZM41.8921 13L39.5161 4.504H40.7241L42.9721 12.4H42.7241L44.2121 4.504H45.6281L43.7961 13H41.8921ZM36.1481 13L34.3001 4.504H35.7161L37.2201 12.4H36.9721L39.1961 4.504H40.4041L38.0601 13H36.1481ZM50.1451 13.16C49.4998 13.16 48.9345 13.0587 48.4491 12.856C47.9691 12.6533 47.5958 12.3627 47.3291 11.984C47.0625 11.6 46.9291 11.1413 46.9291 10.608C46.9291 10.0533 47.0731 9.592 47.3611 9.224C47.6491 8.85067 48.0545 8.56 48.5771 8.352C49.0998 8.144 49.7078 8.00533 50.4011 7.936C51.4465 7.82933 52.1905 7.72533 52.6331 7.624C53.0758 7.51733 53.2971 7.34667 53.2971 7.112C53.2971 7.10667 53.2971 7.104 53.2971 7.104C53.2971 7.09867 53.2971 7.09333 53.2971 7.088C53.2971 6.59733 53.0971 6.232 52.6971 5.992C52.2971 5.74667 51.7185 5.624 50.9611 5.624C50.1718 5.624 49.5585 5.76267 49.1211 6.04C48.6838 6.312 48.4651 6.75467 48.4651 7.368H47.1211C47.1211 6.73333 47.2838 6.19467 47.6091 5.752C47.9345 5.304 48.3851 4.96267 48.9611 4.728C49.5425 4.49333 50.2118 4.376 50.9691 4.376C51.6625 4.376 52.2865 4.48267 52.8411 4.696C53.4011 4.904 53.8438 5.216 54.1691 5.632C54.4998 6.04267 54.6651 6.552 54.6651 7.16C54.6651 7.272 54.6651 7.384 54.6651 7.496C54.6651 7.60267 54.6651 7.712 54.6651 7.824V11.4C54.6651 11.5867 54.6731 11.768 54.6891 11.944C54.7051 12.12 54.7318 12.2747 54.7691 12.408C54.8171 12.568 54.8705 12.6987 54.9291 12.8C54.9878 12.896 55.0358 12.9627 55.0731 13H53.7051C53.6785 12.9733 53.6385 12.912 53.5851 12.816C53.5318 12.7147 53.4811 12.5973 53.4331 12.464C53.3958 12.3573 53.3665 12.224 53.3451 12.064C53.3238 11.8987 53.3131 11.728 53.3131 11.552L53.5371 11.704C53.3718 11.992 53.1291 12.2453 52.8091 12.464C52.4945 12.6827 52.1131 12.8533 51.6651 12.976C51.2171 13.0987 50.7105 13.16 50.1451 13.16ZM50.3611 11.936C50.9105 11.936 51.4065 11.8533 51.8491 11.688C52.2918 11.5173 52.6438 11.2667 52.9051 10.936C53.1665 10.6053 53.2971 10.1947 53.2971 9.704V8.016L53.6011 8.528C53.2598 8.66133 52.8331 8.77067 52.3211 8.856C51.8145 8.936 51.2838 9.00267 50.7291 9.056C49.9238 9.13067 49.3158 9.272 48.9051 9.48C48.4998 9.688 48.2971 10.0373 48.2971 10.528C48.2971 10.992 48.4651 11.344 48.8011 11.584C49.1371 11.8187 49.6571 11.936 50.3611 11.936ZM56.9271 13V4.504H58.2871V7.112L57.8391 6.952C57.8711 6.63733 57.9511 6.328 58.0791 6.024C58.2071 5.71467 58.3831 5.43733 58.6071 5.192C58.8365 4.94133 59.1218 4.744 59.4631 4.6C59.8045 4.45067 60.2045 4.376 60.6631 4.376C61.0045 4.376 61.2818 4.40533 61.4951 4.464C61.7138 4.51733 61.8498 4.56 61.9031 4.592L61.5511 5.928C61.4978 5.89067 61.3885 5.84267 61.2231 5.784C61.0631 5.72533 60.8338 5.696 60.5351 5.696C60.0925 5.696 59.7245 5.776 59.4311 5.936C59.1431 6.096 58.9138 6.30933 58.7431 6.576C58.5778 6.83733 58.4605 7.12267 58.3911 7.432C58.3218 7.74133 58.2871 8.048 58.2871 8.352V13H56.9271ZM66.7124 13.16C66.0137 13.16 65.3737 12.992 64.7924 12.656C64.211 12.3147 63.747 11.816 63.4004 11.16C63.0537 10.4987 62.8804 9.69333 62.8804 8.744C62.8804 7.81067 63.0564 7.01867 63.4084 6.368C63.7604 5.71733 64.227 5.224 64.8084 4.888C65.3897 4.54667 66.0244 4.376 66.7124 4.376C67.3684 4.376 67.9817 4.53333 68.5524 4.848C69.1284 5.15733 69.5924 5.58933 69.9444 6.144C70.2964 6.69867 70.4724 7.34133 70.4724 8.072C70.4724 8.088 70.4724 8.104 70.4724 8.12C70.4724 8.136 70.4724 8.152 70.4724 8.168L69.4964 8.208C69.4964 8.192 69.4964 8.176 69.4964 8.16C69.4964 8.13867 69.4964 8.12 69.4964 8.104C69.4964 7.64 69.3737 7.22133 69.1284 6.848C68.8884 6.47467 68.571 6.17867 68.1764 5.96C67.7817 5.736 67.3577 5.624 66.9044 5.624C66.147 5.624 65.5204 5.88 65.0244 6.392C64.5284 6.89867 64.2804 7.68267 64.2804 8.744C64.2804 9.8 64.5284 10.5867 65.0244 11.104C65.5257 11.616 66.1524 11.872 66.9044 11.872C67.379 11.872 67.811 11.7573 68.2004 11.528C68.595 11.2987 68.9097 10.992 69.1444 10.608C69.379 10.2187 69.4964 9.784 69.4964 9.304L70.4724 9.328C70.4724 10.0533 70.3044 10.7067 69.9684 11.288C69.6324 11.864 69.179 12.32 68.6084 12.656C68.043 12.992 67.411 13.16 66.7124 13.16ZM69.4964 13V0.495999H70.8644V13H69.4964ZM76.5033 13.16C75.9913 13.16 75.5166 13.1067 75.0793 13C74.6473 12.888 74.2686 12.728 73.9433 12.52C73.6233 12.3067 73.3726 12.0453 73.1913 11.736C73.0153 11.4267 72.9273 11.072 72.9273 10.672C72.9273 10.6293 72.9273 10.5867 72.9273 10.544C72.9273 10.496 72.9273 10.456 72.9273 10.424H74.2953C74.2953 10.456 74.2953 10.4827 74.2953 10.504C74.2953 10.5253 74.2953 10.5573 74.2953 10.6C74.2953 11.032 74.4953 11.3627 74.8953 11.592C75.2953 11.816 75.8419 11.928 76.5353 11.928C76.9619 11.928 77.3433 11.8853 77.6793 11.8C78.0153 11.7147 78.2793 11.584 78.4713 11.408C78.6686 11.232 78.7673 11.0107 78.7673 10.744C78.7673 10.3013 78.5593 9.98667 78.1433 9.8C77.7326 9.608 77.1166 9.44267 76.2953 9.304C75.8633 9.22933 75.4526 9.13333 75.0633 9.016C74.6739 8.89333 74.3273 8.736 74.0233 8.544C73.7246 8.352 73.4873 8.11467 73.3113 7.832C73.1406 7.544 73.0553 7.2 73.0553 6.8C73.0553 6.28267 73.2073 5.84533 73.5113 5.488C73.8206 5.12533 74.2366 4.85067 74.7593 4.664C75.2819 4.472 75.8633 4.376 76.5033 4.376C77.1219 4.376 77.6926 4.47467 78.2153 4.672C78.7379 4.86933 79.1566 5.15733 79.4713 5.536C79.7913 5.90933 79.9513 6.37067 79.9513 6.92C79.9513 6.94133 79.9513 6.968 79.9513 7C79.9513 7.02667 79.9513 7.05333 79.9513 7.08H78.5913C78.5913 7.05333 78.5913 7.032 78.5913 7.016C78.5913 7 78.5913 6.98133 78.5913 6.96C78.5913 6.65067 78.4926 6.39733 78.2953 6.2C78.0979 5.99733 77.8419 5.848 77.5273 5.752C77.2126 5.65067 76.8766 5.6 76.5193 5.6C76.1833 5.6 75.8526 5.63733 75.5273 5.712C75.2019 5.78133 74.9326 5.89867 74.7193 6.064C74.5059 6.22933 74.3993 6.456 74.3993 6.744C74.3993 7.032 74.4979 7.264 74.6953 7.44C74.8979 7.61067 75.1806 7.752 75.5433 7.864C75.9113 7.97067 76.3433 8.06933 76.8393 8.16C77.2819 8.24 77.7006 8.34133 78.0953 8.464C78.4899 8.58133 78.8366 8.73333 79.1353 8.92C79.4393 9.10667 79.6766 9.344 79.8473 9.632C80.0233 9.91467 80.1112 10.2613 80.1112 10.672C80.1112 11.088 80.0153 11.4507 79.8233 11.76C79.6366 12.0693 79.3753 12.328 79.0393 12.536C78.7086 12.744 78.3246 12.8987 77.8873 13C77.4553 13.1067 76.9939 13.16 76.5033 13.16Z" fill="#391400"/>
</svg>
