<svg width="64" height="14" viewBox="0 0 64 14" fill="none" xmlns="http://www.w3.org/2000/svg">
<path d="M8.43363 2.4H5.02563L5.33763 1.624V13H3.97763V1.624L4.36163 2.4H0.889625V1.2H8.43363V2.4ZM16.3745 13V9.84C16.3745 9.69067 16.3745 9.51467 16.3745 9.312C16.3745 9.104 16.3745 8.896 16.3745 8.688C16.3745 8.47467 16.3745 8.29333 16.3745 8.144C16.3745 7.328 16.1985 6.712 15.8465 6.296C15.4998 5.88 14.9478 5.672 14.1905 5.672C13.6838 5.672 13.2385 5.77067 12.8545 5.968C12.4758 6.16533 12.1798 6.43467 11.9665 6.776C11.7532 7.11733 11.6465 7.504 11.6465 7.936L10.7825 7.672C10.7825 7.064 10.9398 6.512 11.2545 6.016C11.5745 5.51467 12.0092 5.11733 12.5585 4.824C13.1132 4.52533 13.7398 4.376 14.4385 4.376C15.4572 4.376 16.2598 4.68267 16.8465 5.296C17.4385 5.90933 17.7345 6.75733 17.7345 7.84C17.7345 8.12267 17.7345 8.448 17.7345 8.816C17.7345 9.184 17.7345 9.57067 17.7345 9.976V13H16.3745ZM10.2865 13V0.495999H11.6465V13H10.2865ZM20.539 9.296V8.08H27.107L26.867 8.48C26.867 8.448 26.867 8.41867 26.867 8.392C26.867 8.36 26.867 8.33067 26.867 8.304C26.867 7.81333 26.763 7.36533 26.555 6.96C26.3523 6.54933 26.0483 6.22133 25.643 5.976C25.2377 5.73067 24.7363 5.608 24.139 5.608C23.5363 5.608 23.0057 5.736 22.547 5.992C22.0883 6.248 21.731 6.61067 21.475 7.08C21.219 7.544 21.091 8.09867 21.091 8.744C21.091 9.4 21.2137 9.96533 21.459 10.44C21.7097 10.9147 22.0643 11.28 22.523 11.536C22.9817 11.792 23.5257 11.92 24.155 11.92C24.603 11.92 24.9923 11.8747 25.323 11.784C25.6537 11.688 25.9257 11.5627 26.139 11.408C26.3577 11.248 26.523 11.0747 26.635 10.888C26.747 10.7013 26.8137 10.5147 26.835 10.328H28.195C28.1683 10.6693 28.0617 11.008 27.875 11.344C27.6883 11.68 27.4243 11.9867 27.083 12.264C26.7417 12.536 26.323 12.7547 25.827 12.92C25.331 13.0853 24.7603 13.168 24.115 13.168C23.2617 13.168 22.5097 12.9813 21.859 12.608C21.2083 12.2347 20.6963 11.7173 20.323 11.056C19.955 10.3947 19.771 9.63467 19.771 8.776C19.771 7.90667 19.9577 7.144 20.331 6.488C20.7043 5.82667 21.219 5.30933 21.875 4.936C22.531 4.56267 23.2803 4.376 24.123 4.376C24.9817 4.376 25.7257 4.56267 26.355 4.936C26.9843 5.30933 27.4697 5.82133 27.811 6.472C28.1523 7.11733 28.323 7.85333 28.323 8.68C28.323 8.76533 28.3203 8.87733 28.315 9.016C28.3097 9.15467 28.3017 9.248 28.291 9.296H20.539ZM35.0908 2.4L35.7068 1.624V7.016L35.2668 6.584H40.0428V7.784H35.2668L35.7068 7.328V13H34.3468V1.2H40.7548V2.4H35.0908ZM44.0676 13L42.1956 1.2H43.6036L45.1956 12.416L44.9876 12.408L47.5076 1.2H49.3156L51.8276 12.408L51.6196 12.416L53.2116 1.2H54.6276L52.7396 13H50.6356L48.3316 2.352H48.4916L46.1796 13H44.0676ZM54.7803 13L58.0283 1.168H60.1563L63.3802 13H61.9723L59.0843 2.056H59.1003L56.1883 13H54.7803ZM56.4603 9.872V8.672H61.7243V9.872H56.4603Z" fill="#391400"/>
</svg>
